<svg width="50" height="50" viewBox="0 0 50 50" fill="none" xmlns="http://www.w3.org/2000/svg">
<path fill-rule="evenodd" clip-rule="evenodd" d="M24.7059 1.31579C24.7059 0.589106 25.3644 0 26.1765 0H34.4118C35.1756 0 35.8123 0.523237 35.877 1.20421C36.3106 5.763 38.5323 8.40771 41.0329 9.92919C43.5979 11.49 46.565 11.93 48.4641 11.8543C49.2753 11.822 49.9623 12.3843 49.9985 13.1103C50.0347 13.8363 49.4062 14.451 48.5947 14.4833C46.1803 14.5795 42.5588 14.0402 39.3788 12.1052C36.3856 10.2838 33.8723 7.27637 33.1026 2.63158H27.647V30.1753C27.647 34.6437 25.6697 38.0279 22.7894 39.8398C19.9029 41.6555 16.1919 41.8077 13.2226 39.8834C9.54226 37.4982 8.90706 33.7487 10.3831 30.7929C11.6648 28.2263 14.5316 26.2566 18.2353 26.1958V20.1969C15.5444 20.3534 12.0884 20.9674 9.15856 22.5963C5.76412 24.4837 2.94118 27.7987 2.94118 33.7826C2.94118 37.6545 4.11156 40.4182 5.83429 42.3924C7.56729 44.3784 9.94694 45.665 12.5381 46.4345C15.1346 47.2053 17.8943 47.4408 20.2868 47.35C22.7203 47.2577 24.6029 46.835 25.497 46.4184C29.1409 44.72 31.2038 43.0434 32.4179 40.915C33.6579 38.7416 34.1176 35.9211 34.1176 31.7213V17.2916C34.1176 16.8375 34.3794 16.4155 34.81 16.1752C35.2406 15.9349 35.7791 15.9102 36.235 16.1098C38.0753 16.9161 43.2291 18.6766 48.6491 19.0722C49.4585 19.1314 50.0612 19.7663 49.995 20.4908C49.9291 21.215 49.2194 21.7542 48.4097 21.695C43.9829 21.3719 39.7612 20.2237 37.0588 19.2875V31.7213C37.0588 36.0179 36.6068 39.3611 35.0376 42.1113C33.4429 44.9069 30.8 46.914 26.8559 48.7524C25.4185 49.4221 23.0473 49.8792 20.4115 49.9792C17.7343 50.0808 14.6088 49.8219 11.6117 48.9321C8.60932 48.0406 5.68679 46.4995 3.51603 44.0119C1.33497 41.5127 0 38.1566 0 33.7826C0 26.8832 3.35356 22.7255 7.6062 20.3613C11.7549 18.0546 16.6241 17.5219 19.7059 17.5219C20.5179 17.5219 21.1765 18.111 21.1765 18.8376V27.5984C21.1765 27.9819 20.9897 28.3458 20.6653 28.5958C20.3406 28.8458 19.9103 28.9569 19.4868 28.8998C16.3538 28.4774 14.0311 29.9387 13.0684 31.8663C12.1112 33.7832 12.4892 36.1587 14.9479 37.7521C16.8126 38.9605 19.1473 38.914 21.0976 37.6871C23.0547 36.4558 24.7059 33.9524 24.7059 30.1753V1.31579Z" fill="white"/>
</svg>
